<?xml version="1.0" encoding="UTF-8" standalone="no"?>
<svg
   xmlns:dc="http://purl.org/dc/elements/1.1/"
   xmlns:cc="http://creativecommons.org/ns#"
   xmlns:rdf="http://www.w3.org/1999/02/22-rdf-syntax-ns#"
   xmlns:svg="http://www.w3.org/2000/svg"
   xmlns="http://www.w3.org/2000/svg"
   viewBox="0 0 64 64"
   version="1.1"
   id="svg4960"
   height="64"
   width="64">
  <defs
     id="defs4962" />
  <metadata
     id="metadata4965">
    <rdf:RDF>
      <cc:Work
         rdf:about="">
        <dc:format>image/svg+xml</dc:format>
        <dc:type
           rdf:resource="http://purl.org/dc/dcmitype/StillImage" />
        <dc:title></dc:title>
      </cc:Work>
    </rdf:RDF>
  </metadata>
  <g
     id="layer1">
    <g
       style="stroke:#000000;stroke-width:3;stroke-miterlimit:4;stroke-dasharray:none;stroke-opacity:1;fill:none;fill-opacity:1"
       transform="matrix(0.99119518,0.13240892,-0.13240892,0.99119518,31.40386,32.050155)"
       id="g6403">
      <path
         d="m 16.85241,-3.3836 5.27611,-1.05932 0.34942,-0.02822 6.07851,2.18404 0,4.5742 -6.07851,2.18404 -0.34942,-0.02822 -5.27611,-1.05932 -2.54339,6.14029 4.47982,2.98171 0.26704,0.22713 2.7538,5.84251 -3.23444,3.23444 -5.84251,-2.7538 -0.22713,-0.26704 -2.98171,-4.47982 -6.14029,2.54339 1.05932,5.27611 0.02822,0.34942 -2.18404,6.07851 -4.5742,0 -2.18404,-6.07851 0.02822,-0.34942 1.05932,-5.27611 -6.14029,-2.54339 -2.98171,4.47982 -0.22713,0.26704 -5.84251,2.7538 -3.23444,-3.23444 2.7538,-5.84251 0.26704,-0.22713 4.47982,-2.98171 -2.54339,-6.14029 -5.27611,1.05932 -0.34942,0.02822 -6.07851,-2.18404 0,-4.5742 6.07851,-2.18404 0.34942,0.02822 5.27611,1.05932 2.54339,-6.14029 -4.47982,-2.98171 -0.26704,-0.22713 -2.7538,-5.84251 3.23444,-3.23444 5.84251,2.7538 0.22713,0.26704 2.98171,4.47982 6.14029,-2.54339 -1.05932,-5.27611 -0.02822,-0.34942 2.18404,-6.07851 4.5742,0 2.18404,6.07851 -0.02822,0.34942 -1.05932,5.27611 6.14029,2.54339 2.98171,-4.47982 0.22713,-0.26704 5.84251,-2.7538 3.23444,3.23444 -2.7538,5.84251 -0.26704,0.22713 -4.47982,2.98171 z"
         style="fill:none;stroke:#000000;stroke-width:3;stroke-miterlimit:4;stroke-dasharray:none;stroke-opacity:1;fill-opacity:1"
         id="path6405" />
      <circle
         r="9"
         cy="0"
         cx="0"
         style="fill:none;stroke:#000000;stroke-width:3;stroke-miterlimit:4;stroke-dasharray:none;stroke-opacity:1;fill-opacity:1"
         id="path6407" />
    </g>
  </g>
</svg>
