<?xml version="1.0" encoding="UTF-8" standalone="no"?>
<!-- Created with Inkscape (http://www.inkscape.org/) -->

<svg
   xmlns:dc="http://purl.org/dc/elements/1.1/"
   xmlns:cc="http://creativecommons.org/ns#"
   xmlns:rdf="http://www.w3.org/1999/02/22-rdf-syntax-ns#"
   xmlns:svg="http://www.w3.org/2000/svg"
   xmlns="http://www.w3.org/2000/svg"
   xmlns:sodipodi="http://sodipodi.sourceforge.net/DTD/sodipodi-0.dtd"
   xmlns:inkscape="http://www.inkscape.org/namespaces/inkscape"
   width="64"
   height="64"
   id="svg4960"
   version="1.1"
   inkscape:version="0.91 r13725"
   viewBox="0 0 64 64"
   sodipodi:docname="settings.svg">
  <sodipodi:namedview
     id="base"
     pagecolor="#ffffff"
     bordercolor="#666666"
     borderopacity="1.0"
     inkscape:pageopacity="0.0"
     inkscape:pageshadow="2"
     inkscape:zoom="11"
     inkscape:cx="38.314287"
     inkscape:cy="29.983109"
     inkscape:current-layer="layer1"
     showgrid="true"
     inkscape:document-units="px"
     inkscape:grid-bbox="true"
     inkscape:window-width="1920"
     inkscape:window-height="1009"
     inkscape:window-x="0"
     inkscape:window-y="49"
     inkscape:window-maximized="1" />
  <defs
     id="defs4962" />
  <metadata
     id="metadata4965">
    <rdf:RDF>
      <cc:Work
         rdf:about="">
        <dc:format>image/svg+xml</dc:format>
        <dc:type
           rdf:resource="http://purl.org/dc/dcmitype/StillImage" />
        <dc:title></dc:title>
      </cc:Work>
    </rdf:RDF>
  </metadata>
  <g
     id="layer1"
     inkscape:label="Layer 1"
     inkscape:groupmode="layer">
    <g
       id="g6403"
       inkscape:label="Gear8"
       transform="matrix(0.99119518,0.13240892,-0.13240892,0.99119518,31.40386,32.050155)"
       style="stroke:#000000;stroke-width:3;stroke-miterlimit:4;stroke-dasharray:none;stroke-opacity:1;fill:none;fill-opacity:1">
      <path
         id="path6405"
         style="fill:none;stroke:#000000;stroke-width:3;stroke-miterlimit:4;stroke-dasharray:none;stroke-opacity:1;fill-opacity:1"
         d="m 16.85241,-3.3836 5.27611,-1.05932 0.34942,-0.02822 6.07851,2.18404 0,4.5742 -6.07851,2.18404 -0.34942,-0.02822 -5.27611,-1.05932 -2.54339,6.14029 4.47982,2.98171 0.26704,0.22713 2.7538,5.84251 -3.23444,3.23444 -5.84251,-2.7538 -0.22713,-0.26704 -2.98171,-4.47982 -6.14029,2.54339 1.05932,5.27611 0.02822,0.34942 -2.18404,6.07851 -4.5742,0 -2.18404,-6.07851 0.02822,-0.34942 1.05932,-5.27611 -6.14029,-2.54339 -2.98171,4.47982 -0.22713,0.26704 -5.84251,2.7538 -3.23444,-3.23444 2.7538,-5.84251 0.26704,-0.22713 4.47982,-2.98171 -2.54339,-6.14029 -5.27611,1.05932 -0.34942,0.02822 -6.07851,-2.18404 0,-4.5742 6.07851,-2.18404 0.34942,0.02822 5.27611,1.05932 2.54339,-6.14029 -4.47982,-2.98171 -0.26704,-0.22713 -2.7538,-5.84251 3.23444,-3.23444 5.84251,2.7538 0.22713,0.26704 2.98171,4.47982 6.14029,-2.54339 -1.05932,-5.27611 -0.02822,-0.34942 2.18404,-6.07851 4.5742,0 2.18404,6.07851 -0.02822,0.34942 -1.05932,5.27611 6.14029,2.54339 2.98171,-4.47982 0.22713,-0.26704 5.84251,-2.7538 3.23444,3.23444 -2.7538,5.84251 -0.26704,0.22713 -4.47982,2.98171 z"
         inkscape:connector-curvature="0" />
      <circle
         id="path6407"
         style="fill:none;stroke:#000000;stroke-width:3;stroke-miterlimit:4;stroke-dasharray:none;stroke-opacity:1;fill-opacity:1"
         cx="0"
         cy="0"
         r="9" />
    </g>
  </g>
</svg>
